{
    "asset" : {
        "generator" : "Khronos glTF Blender I/O v3.3.32",
        "version" : "2.0"
    },
    "extensionsUsed" : [
        "KHR_materials_emissive_strength"
    ],
    "scene" : 0,
    "scenes" : [
        {
            "name" : "Scene",
            "nodes" : [
                0,
                1,
                2
            ]
        }
    ],
    "nodes" : [
        {
            "mesh" : 0,
            "name" : "Circle",
            "rotation" : [
                -0.013971983455121517,
                0.008230447769165039,
                0.9986335039138794,
                0.04968048259615898
            ],
            "scale" : [
                1.0003589391708374,
                1.0000985860824585,
                1.367285132408142
            ],
            "translation" : [
                -1.1546905040740967,
                2.9084653854370117,
                1.669656753540039
            ]
        },
        {
            "mesh" : 1,
            "name" : "Circle.001",
            "rotation" : [
                -0.013971983455121517,
                0.008230447769165039,
                0.9986335039138794,
                0.04968048259615898
            ],
            "scale" : [
                1.0003589391708374,
                1.0000985860824585,
                1.367285132408142
            ],
            "translation" : [
                0.6505134105682373,
                2.9084653854370117,
                0.5350584983825684
            ]
        },
        {
            "mesh" : 2,
            "name" : "Icosphere",
            "rotation" : [
                -0.7000389099121094,
                0.05820456147193909,
                -0.42384830117225647,
                0.571760892868042
            ],
            "scale" : [
                5.3028130531311035,
                5.302812576293945,
                5.3028130531311035
            ],
            "translation" : [
                6.807419300079346,
                -7.9074482917785645,
                3.544135570526123
            ]
        }
    ],
    "materials" : [
        {
            "doubleSided" : true,
            "emissiveFactor" : [
                1,
                0.32099206623739646,
                0.9355087069163187
            ],
            "extensions" : {
                "KHR_materials_emissive_strength" : {
                    "emissiveStrength" : 1.7992157406227705
                }
            },
            "name" : "Material.004",
            "pbrMetallicRoughness" : {
                "baseColorFactor" : [
                    0,
                    0,
                    0,
                    1
                ]
            }
        },
        {
            "doubleSided" : true,
            "emissiveFactor" : [
                1,
                1,
                1
            ],
            "emissiveTexture" : {
                "index" : 0
            },
            "extensions" : {
                "KHR_materials_emissive_strength" : {
                    "emissiveStrength" : 44.099998474121094
                }
            },
            "name" : "Material.005",
            "pbrMetallicRoughness" : {
                "baseColorFactor" : [
                    0,
                    0,
                    0,
                    1
                ]
            }
        }
    ],
    "meshes" : [
        {
            "name" : "Circle",
            "primitives" : [
                {
                    "attributes" : {
                        "POSITION" : 0,
                        "NORMAL" : 1,
                        "TEXCOORD_0" : 2
                    },
                    "indices" : 3,
                    "material" : 0
                }
            ]
        },
        {
            "name" : "Circle.001",
            "primitives" : [
                {
                    "attributes" : {
                        "POSITION" : 4,
                        "NORMAL" : 5,
                        "TEXCOORD_0" : 6
                    },
                    "indices" : 3,
                    "material" : 0
                }
            ]
        },
        {
            "name" : "Icosphere.001",
            "primitives" : [
                {
                    "attributes" : {
                        "POSITION" : 7,
                        "NORMAL" : 8,
                        "TEXCOORD_0" : 9
                    },
                    "indices" : 10,
                    "material" : 1
                }
            ]
        }
    ],
    "textures" : [
        {
            "sampler" : 0,
            "source" : 0
        }
    ],
    "images" : [
        {
            "bufferView" : 11,
            "mimeType" : "image/jpeg",
            "name" : "fire texture"
        }
    ],
    "accessors" : [
        {
            "bufferView" : 0,
            "componentType" : 5126,
            "count" : 32,
            "max" : [
                1,
                1,
                0
            ],
            "min" : [
                -1,
                -1,
                0
            ],
            "type" : "VEC3"
        },
        {
            "bufferView" : 1,
            "componentType" : 5126,
            "count" : 32,
            "type" : "VEC3"
        },
        {
            "bufferView" : 2,
            "componentType" : 5126,
            "count" : 32,
            "type" : "VEC2"
        },
        {
            "bufferView" : 3,
            "componentType" : 5123,
            "count" : 90,
            "type" : "SCALAR"
        },
        {
            "bufferView" : 4,
            "componentType" : 5126,
            "count" : 32,
            "max" : [
                1,
                1,
                0
            ],
            "min" : [
                -1,
                -1,
                0
            ],
            "type" : "VEC3"
        },
        {
            "bufferView" : 5,
            "componentType" : 5126,
            "count" : 32,
            "type" : "VEC3"
        },
        {
            "bufferView" : 6,
            "componentType" : 5126,
            "count" : 32,
            "type" : "VEC2"
        },
        {
            "bufferView" : 7,
            "componentType" : 5126,
            "count" : 729,
            "max" : [
                1,
                0.9999999403953552,
                1
            ],
            "min" : [
                -0.9999999403953552,
                -0.9999999403953552,
                -1
            ],
            "type" : "VEC3"
        },
        {
            "bufferView" : 8,
            "componentType" : 5126,
            "count" : 729,
            "type" : "VEC3"
        },
        {
            "bufferView" : 9,
            "componentType" : 5126,
            "count" : 729,
            "type" : "VEC2"
        },
        {
            "bufferView" : 10,
            "componentType" : 5123,
            "count" : 3840,
            "type" : "SCALAR"
        }
    ],
    "bufferViews" : [
        {
            "buffer" : 0,
            "byteLength" : 384,
            "byteOffset" : 0,
            "target" : 34962
        },
        {
            "buffer" : 0,
            "byteLength" : 384,
            "byteOffset" : 384,
            "target" : 34962
        },
        {
            "buffer" : 0,
            "byteLength" : 256,
            "byteOffset" : 768,
            "target" : 34962
        },
        {
            "buffer" : 0,
            "byteLength" : 180,
            "byteOffset" : 1024,
            "target" : 34963
        },
        {
            "buffer" : 0,
            "byteLength" : 384,
            "byteOffset" : 1204,
            "target" : 34962
        },
        {
            "buffer" : 0,
            "byteLength" : 384,
            "byteOffset" : 1588,
            "target" : 34962
        },
        {
            "buffer" : 0,
            "byteLength" : 256,
            "byteOffset" : 1972,
            "target" : 34962
        },
        {
            "buffer" : 0,
            "byteLength" : 8748,
            "byteOffset" : 2228,
            "target" : 34962
        },
        {
            "buffer" : 0,
            "byteLength" : 8748,
            "byteOffset" : 10976,
            "target" : 34962
        },
        {
            "buffer" : 0,
            "byteLength" : 5832,
            "byteOffset" : 19724,
            "target" : 34962
        },
        {
            "buffer" : 0,
            "byteLength" : 7680,
            "byteOffset" : 25556,
            "target" : 34963
        },
        {
            "buffer" : 0,
            "byteLength" : 85774,
            "byteOffset" : 33236
        }
    ],
    "samplers" : [
        {
            "magFilter" : 9728,
            "minFilter" : 9984
        }
    ],
    "buffers" : [
        {
            "byteLength" : 119012,
            "uri" : "data:application/octet-stream;base64,"
        }
    ]
}
